<?xml version="1.0" standalone="no"?>
<!DOCTYPE svg PUBLIC "-//W3C//DTD SVG 20010904//EN"
 "http://www.w3.org/TR/2001/REC-SVG-20010904/DTD/svg10.dtd">
<svg version="1.0" xmlns="http://www.w3.org/2000/svg"
 width="192.000000pt" height="192.000000pt" viewBox="0 0 192.000000 192.000000"
 preserveAspectRatio="xMidYMid meet">
<metadata>
Created by potrace 1.11, written by Peter Selinger 2001-2013
</metadata>
<g transform="translate(0.000000,192.000000) scale(0.100000,-0.100000)"
fill="#000000" stroke="none">
<path d="M135 1901 c-22 -10 -54 -34 -72 -52 -66 -70 -63 -28 -63 -889 0 -640
2 -787 14 -814 21 -49 71 -101 121 -125 44 -21 53 -21 816 -21 579 0 782 3
813 12 54 16 128 90 144 144 9 31 12 234 12 813 0 763 0 772 -21 816 -24 50
-76 100 -125 121 -27 12 -174 14 -816 14 -741 0 -785 -1 -823 -19z m1097 -302
c74 -25 128 -61 188 -125 58 -61 87 -121 106 -218 14 -69 14 -83 0 -152 -8
-42 -25 -97 -38 -122 -26 -55 -96 -133 -153 -172 -86 -58 -114 -64 -330 -70
l-200 -5 -3 -212 -2 -213 -125 0 -125 0 0 655 0 655 310 0 c288 0 315 -2 372
-21z"/>
<path d="M800 1186 l0 -196 170 0 c194 0 215 5 272 68 79 87 60 224 -40 293
-34 23 -44 24 -219 27 l-183 3 0 -195z"/>
</g>
</svg>
